<?xml version="1.0" encoding="UTF-8"?>
<svg xmlns="http://www.w3.org/2000/svg" onmouseup="{ if(window.parent.document.onmouseup) window.parent.document.onmouseup(arguments[0]);}" viewBox="0 0 173.57 198">
  <defs>
    <style>
      .cls-1 {
        fill: #fff;
      }
    </style>
  </defs>
  <title>Asset 7</title>
  <g id="Layer_2" data-name="Layer 2">
    <g id="Layer_1-2" data-name="Layer 1">
      <g>
        <g>
          <path class="cls-1" d="M42,106.7V71.93a3.74,3.74,0,0,0-2-3.55h8a3.67,3.67,0,0,0-2.12,3.55v51.45S8.27,77.9,8.27,77.12v41.22a3.63,3.63,0,0,0,2.2,3.54h-8a3.9,3.9,0,0,0,2.05-3.54V74.91c0-2.28,0-2.43-1-3.69A10,10,0,0,0,0,68.38H10.87Z"/>
          <path class="cls-1" d="M74.5,67.13S94.82,115,96.08,118c.63,1.65,1.18,2.59,3.93,3.85H85.76c2-.94,2.6-2,2-3.85-.47-.94-2.68-6-5.12-12H62.21c-2.6,5.9-4.64,11.1-5,12-.63,1.81-.39,3.07,1.65,3.85H49.3c2.2-1.49,2.91-2.36,3.62-3.85C54.26,115,74.5,67.13,74.5,67.13Zm-11,35.48H81.27c-4.09-9.91-8.9-22-8.9-22S67,94.11,63.55,102.61Z"/>
          <path class="cls-1" d="M131.12,68.38l.16,6.14c-1.57-1.81-3.23-2.75-6.61-2.75-1.5,0-13.55-.16-13.55-.16v19H124a3.73,3.73,0,0,0,2.75-2.2V96A3.73,3.73,0,0,0,124,93.8H111.12V118a82.28,82.28,0,0,0,9.14.47c8.5,0,11.49,0,14.4-5L133,121.88H101.35a3.62,3.62,0,0,0,2.36-3.54V71.93a3.73,3.73,0,0,0-2.2-3.55Z"/>
          <path class="cls-1" d="M164.12,96.94c-2.44,1.1-9.61,2.91-15.67.47v20.93a3.75,3.75,0,0,0,2.21,3.54H138.92a4,4,0,0,0,2.2-3.54V71.93a3.86,3.86,0,0,0-2.2-3.55h15c15.75,0,19.61,8.5,19.61,14.64C173.57,91.59,166.56,95.84,164.12,96.94Zm-10.4-25.41c-3.62,0-5.27.08-5.27.08V94.9a11.26,11.26,0,0,0,3.85.55c4.26,0,13.47-1.5,13.47-12.27C165.77,76,161.68,71.53,153.72,71.53Z"/>
        </g>
        <g>
          <path class="cls-1" d="M10.16,155.51v-5.89a.69.69,0,0,0-.39-.67h1.66a.7.7,0,0,0-.39.67v9.88S3.88,151.07,3.88,151v7.47a.72.72,0,0,0,.42.67H2.64a.73.73,0,0,0,.39-.67v-8c0-.59,0-.6-.27-.94a2.2,2.2,0,0,0-.67-.57H4.66Z"/>
          <path class="cls-1" d="M17.23,148.64s4,9.15,4.23,9.72a1.34,1.34,0,0,0,.74.73H19c.39-.21.47-.42.36-.73,0-.15-.43-1.06-.85-2.08H14.87c-.45,1-.8,1.9-.84,2.06-.13.36,0,.57.35.75H12.32a1.81,1.81,0,0,0,.7-.73C13.3,157.79,17.23,148.64,17.23,148.64Zm-2.06,6.87h3c-.7-1.66-1.52-3.65-1.52-3.65S15.65,154.39,15.17,155.51Z"/>
          <path class="cls-1" d="M29.77,149.8s-1.35-.1-2.44-.1v8.72a.75.75,0,0,0,.39.67H25.05a.72.72,0,0,0,.39-.67V149.7c-1.11,0-2.39.1-2.39.1-.36,0-.61.34-.74.6V149h8.17v1.45A1,1,0,0,0,29.77,149.8Z"/>
          <path class="cls-1" d="M34.77,149a.67.67,0,0,0-.38.67v8.8a.69.69,0,0,0,.38.67h-2.7a.72.72,0,0,0,.39-.67v-8.8a.69.69,0,0,0-.39-.67Z"/>
          <path class="cls-1" d="M47.84,154.05a5.28,5.28,0,0,1-5.63,5.19,5.24,5.24,0,1,1,.24-10.45A5.26,5.26,0,0,1,47.84,154.05Zm-5.53-4.49c-2,0-3.44,1.57-3.47,4.21,0,3.17,1.79,4.62,3.5,4.62,2,0,3.4-1.55,3.4-4.25C45.77,151.26,44.3,149.56,42.31,149.56Z"/>
          <path class="cls-1" d="M57.3,155.51v-5.89a.69.69,0,0,0-.39-.67h1.65a.72.72,0,0,0-.39.67v9.88S51,151.07,51,151v7.47a.72.72,0,0,0,.42.67H49.78a.73.73,0,0,0,.39-.67v-8c0-.59,0-.6-.27-.94a2.48,2.48,0,0,0-.67-.57H51.8Z"/>
          <path class="cls-1" d="M64.36,148.64s4,9.15,4.24,9.72a1.34,1.34,0,0,0,.74.73H66.15c.39-.21.46-.42.36-.73,0-.15-.43-1.06-.85-2.08H62c-.45,1-.81,1.9-.84,2.06-.13.36-.06.57.35.75H59.46a1.81,1.81,0,0,0,.7-.73C60.44,157.79,64.36,148.64,64.36,148.64Zm-2.06,6.87h3c-.7-1.66-1.52-3.65-1.52-3.65S62.78,154.39,62.3,155.51Z"/>
          <path class="cls-1" d="M72.92,149a.69.69,0,0,0-.39.67v8.62c.3,0,1,.07,1.66.07,1.65-.06,2.17-.07,2.64-.94l-.33,1.72H70.22a.71.71,0,0,0,.42-.67v-8.8a.68.68,0,0,0-.42-.67Z"/>
          <path class="cls-1" d="M85.59,148.64s4,9.15,4.24,9.72a1.3,1.3,0,0,0,.74.73H87.38c.39-.21.46-.42.36-.73,0-.15-.44-1.06-.85-2.08H83.24c-.45,1-.81,1.9-.84,2.06-.13.36-.06.57.34.75h-2a1.89,1.89,0,0,0,.7-.73C81.67,157.79,85.59,148.64,85.59,148.64Zm-2.06,6.87h3L85,151.86S84,154.39,83.53,155.51Z"/>
          <path class="cls-1" d="M94.7,152.89c1.39.65,2.83,1.14,2.83,3.21a3.28,3.28,0,0,1-3.47,3.14,6.33,6.33,0,0,1-2.86-.72L91.12,156a3.06,3.06,0,0,0,2.73,2.46,1.76,1.76,0,0,0,1.93-1.79c0-1.43-1.3-1.62-2.66-2.35s-2-1.57-2-2.7a3,3,0,0,1,3.25-2.83,4.75,4.75,0,0,1,2.25.55l.08,2.2a2.68,2.68,0,0,0-2.49-2A1.44,1.44,0,0,0,92.66,151C92.66,151.9,93.3,152.24,94.7,152.89Z"/>
          <path class="cls-1" d="M102.78,152.89c1.39.65,2.84,1.14,2.84,3.21a3.29,3.29,0,0,1-3.48,3.14,6.42,6.42,0,0,1-2.87-.72L99.2,156a3.05,3.05,0,0,0,2.73,2.46,1.75,1.75,0,0,0,1.92-1.79c0-1.43-1.29-1.62-2.65-2.35s-2-1.57-2-2.7c0-2,1.9-2.83,3.25-2.83a4.75,4.75,0,0,1,2.25.55l.08,2.2a2.68,2.68,0,0,0-2.49-2,1.44,1.44,0,0,0-1.58,1.44C100.74,151.9,101.38,152.24,102.78,152.89Z"/>
          <path class="cls-1" d="M113.57,149l.05,1.31a1.31,1.31,0,0,0-1.16-.53c-.45,0-2.54,0-2.54,0v3.42h2.25a.71.71,0,0,0,.54-.41v1.58a.69.69,0,0,0-.54-.44h-2.25v4.39a14.32,14.32,0,0,0,1.94.07c1.3,0,1.89,0,2.44-.94l-.31,1.72h-6.41a.74.74,0,0,0,.45-.67v-8.8a.73.73,0,0,0-.45-.67Z"/>
          <path class="cls-1" d="M119.07,152.89c1.39.65,2.84,1.14,2.84,3.21a3.28,3.28,0,0,1-3.48,3.14,6.37,6.37,0,0,1-2.86-.72L115.5,156a3,3,0,0,0,2.72,2.46,1.75,1.75,0,0,0,1.92-1.79c0-1.43-1.29-1.62-2.65-2.35s-2-1.57-2-2.7c0-2,1.9-2.83,3.25-2.83a4.78,4.78,0,0,1,2.26.55l.07,2.2a2.68,2.68,0,0,0-2.49-2A1.44,1.44,0,0,0,117,151C117,151.9,117.68,152.24,119.07,152.89Z"/>
          <path class="cls-1" d="M127.16,152.89c1.38.65,2.82,1.14,2.82,3.21a3.28,3.28,0,0,1-3.47,3.14,6.37,6.37,0,0,1-2.86-.72l-.08-2.52a3.06,3.06,0,0,0,2.73,2.46,1.76,1.76,0,0,0,1.93-1.79c0-1.43-1.3-1.62-2.65-2.35s-2-1.57-2-2.7c0-2,1.9-2.83,3.26-2.83a4.77,4.77,0,0,1,2.25.55l.07,2.2a2.68,2.68,0,0,0-2.49-2,1.44,1.44,0,0,0-1.58,1.44C125.11,151.9,125.75,152.24,127.16,152.89Z"/>
          <path class="cls-1" d="M137.47,155.79l2.88-6.84h2.51a.7.7,0,0,0-.38.67v8.8a.73.73,0,0,0,.38.67H140.2a.72.72,0,0,0,.39-.67v-7.5a2.08,2.08,0,0,1,0-.34l-.14.34-3.58,8.38-3.6-8.14-.11-.41v7.67a.72.72,0,0,0,.42.67H132a.75.75,0,0,0,.39-.67v-8.8a.84.84,0,0,0-.48-.67h2.63Z"/>
          <path class="cls-1" d="M151.14,149l.05,1.31a1.32,1.32,0,0,0-1.17-.53c-.45,0-2.53,0-2.53,0v3.42h2.25a.73.73,0,0,0,.54-.41v1.58a.71.71,0,0,0-.54-.44h-2.25v4.39a14.32,14.32,0,0,0,1.94.07c1.29,0,1.89,0,2.44-.94l-.31,1.72h-6.41a.73.73,0,0,0,.44-.67v-8.8a.73.73,0,0,0-.44-.67Z"/>
          <path class="cls-1" d="M160.87,155.51v-5.89a.7.7,0,0,0-.38-.67h1.65a.71.71,0,0,0-.38.67v9.88s-7.16-8.43-7.16-8.55v7.47a.72.72,0,0,0,.41.67h-1.65a.75.75,0,0,0,.39-.67v-8c0-.59,0-.6-.27-.94a2.48,2.48,0,0,0-.67-.57h2.56Z"/>
          <path class="cls-1" d="M171.05,149.8s-1.35-.1-2.44-.1v8.72a.73.73,0,0,0,.39.67h-2.67a.72.72,0,0,0,.39-.67V149.7c-1.11,0-2.39.1-2.39.1-.35,0-.61.34-.74.6V149h8.17v1.45A1,1,0,0,0,171.05,149.8Z"/>
          <path class="cls-1" d="M35.42,173.43a5.29,5.29,0,0,1-5.63,5.19A5.24,5.24,0,1,1,30,168.17,5.28,5.28,0,0,1,35.42,173.43Zm-5.53-4.49c-2,0-3.45,1.57-3.47,4.21,0,3.17,1.79,4.62,3.5,4.62,1.95,0,3.4-1.55,3.4-4.25C33.35,170.64,31.87,168.94,29.89,168.94Z"/>
          <path class="cls-1" d="M39.7,177.8a.67.67,0,0,0,.43.67H37.36a.69.69,0,0,0,.45-.67V169a.69.69,0,0,0-.45-.68h6.33l.08,1.45a1.18,1.18,0,0,0-1.2-.64l-2.87-.06v3.43H42a.69.69,0,0,0,.55-.42v1.58a.65.65,0,0,0-.55-.43H39.7Z"/>
          <path class="cls-1" d="M55,168.33l0,1.31a1.34,1.34,0,0,0-1.16-.54c-.45,0-2.53,0-2.53,0v3.43h2.25a.71.71,0,0,0,.53-.42v1.58a.66.66,0,0,0-.53-.43H51.3v4.38a13.8,13.8,0,0,0,1.94.08c1.29,0,1.89,0,2.44-.94l-.31,1.71H49a.72.72,0,0,0,.44-.67V169a.74.74,0,0,0-.44-.68Z"/>
          <path class="cls-1" d="M61.2,168.33c4.9,0,5.88,3.47,5.88,4.92,0,2.6-2,5.22-6,5.22H57.23a.77.77,0,0,0,.39-.67V169a.72.72,0,0,0-.39-.68Zm-.32.75c-.36,0-1.15,0-1.37,0v8.6H60.7c3.37,0,4.31-2.27,4.31-4.45A3.94,3.94,0,0,0,60.88,169.08Z"/>
          <path class="cls-1" d="M71.72,168.33a.75.75,0,0,0-.46.68v6.24c0,1,.36,2.52,2.29,2.52S76,176.61,76,175.13l0-6.12a.73.73,0,0,0-.4-.68h1.73a.71.71,0,0,0-.39.68l0,6.09c0,2.53-1.5,3.52-3.53,3.52-1.75,0-4-.77-4-3.41V169a.78.78,0,0,0-.48-.68Z"/>
          <path class="cls-1" d="M88.3,168.94s.16,2.37.13,2.31A3.57,3.57,0,0,0,85.06,169c-2.55,0-4,1.87-4,4.27,0,2,1,4.56,4.1,4.56a3.7,3.7,0,0,0,3.37-2.28c0-.06-.14,2.15-.14,2.15a7.6,7.6,0,0,1-3.78,1,5.26,5.26,0,0,1-5.55-5.19c0-2.61,1.94-5.26,5.72-5.26A8.21,8.21,0,0,1,88.3,168.94Z"/>
          <path class="cls-1" d="M94.08,168s4,9.15,4.24,9.72a1.3,1.3,0,0,0,.74.73H95.87c.39-.21.46-.42.36-.73,0-.15-.43-1.06-.85-2.07H91.73a22.14,22.14,0,0,0-.84,2.05c-.13.36-.06.57.35.75H89.18a1.82,1.82,0,0,0,.7-.73C90.16,177.17,94.08,168,94.08,168Zm-2,6.87h3c-.7-1.65-1.52-3.65-1.52-3.65S92.5,173.77,92,174.89Z"/>
          <path class="cls-1" d="M106.63,169.18s-1.35-.1-2.44-.1v8.72a.75.75,0,0,0,.39.67h-2.67a.74.74,0,0,0,.38-.67v-8.72c-1.1,0-2.38.1-2.38.1-.36,0-.61.34-.74.6v-1.45h8.17v1.45A1,1,0,0,0,106.63,169.18Z"/>
          <path class="cls-1" d="M111.63,168.33a.66.66,0,0,0-.39.68v8.79a.69.69,0,0,0,.39.67h-2.7a.73.73,0,0,0,.39-.67V169a.69.69,0,0,0-.39-.68Z"/>
          <path class="cls-1" d="M124.7,173.43a5.55,5.55,0,1,1-5.39-5.26A5.29,5.29,0,0,1,124.7,173.43Zm-5.53-4.49c-2,0-3.44,1.57-3.47,4.21,0,3.17,1.79,4.62,3.5,4.62,2,0,3.4-1.55,3.4-4.25C122.63,170.64,121.16,168.94,119.17,168.94Z"/>
          <path class="cls-1" d="M134.16,174.89V169a.7.7,0,0,0-.4-.68h1.66a.72.72,0,0,0-.39.68v9.88s-7.15-8.44-7.15-8.56v7.47a.73.73,0,0,0,.41.67h-1.65a.77.77,0,0,0,.39-.67v-8c0-.58,0-.6-.27-.94a2.48,2.48,0,0,0-.67-.57h2.56Z"/>
          <path class="cls-1" d="M141.22,168s4,9.15,4.24,9.72a1.3,1.3,0,0,0,.74.73H143c.38-.21.46-.42.36-.73-.05-.15-.44-1.06-.85-2.07h-3.66c-.44,1-.8,1.89-.83,2.05-.13.36-.06.57.34.75h-2.05a1.66,1.66,0,0,0,.69-.73C137.3,177.17,141.22,168,141.22,168Zm-2.06,6.87h3c-.7-1.65-1.52-3.65-1.52-3.65S139.64,173.77,139.16,174.89Z"/>
          <path class="cls-1" d="M149.77,168.33a.7.7,0,0,0-.38.68v8.61c.3,0,1,.08,1.66.08,1.65-.07,2.17-.08,2.63-.94l-.33,1.71h-6.27a.74.74,0,0,0,.42-.67V169a.7.7,0,0,0-.42-.68Z"/>
          <path class="cls-1" d="M56.36,193.13a4.66,4.66,0,0,1-3,.1v4a.72.72,0,0,0,.39.67h-2.7a.73.73,0,0,0,.42-.67v-8.8a.71.71,0,0,0-.42-.67h3.38c3,0,3.73,1.55,3.73,2.78A3.07,3.07,0,0,1,56.36,193.13Zm-2.21-4.72c-.45,0-.76,0-.76,0v4.19a2,2,0,0,0,.58.07,2.07,2.07,0,0,0,2.3-2.2A1.94,1.94,0,0,0,54.15,188.41Z"/>
          <path class="cls-1" d="M67,190.21a2.62,2.62,0,0,1-2.52,2.5,2.2,2.2,0,0,1,1.68,1.12s1.79,2.83,2.31,3.42a2.62,2.62,0,0,0,1,.6l-1.94,0a1.76,1.76,0,0,1-1.33-.7c-.67-.94-1.33-2-1.86-2.86-.39-.6-.73-1.24-1.37-1.24l-.66,0v4.07a.7.7,0,0,0,.42.67H60a.71.71,0,0,0,.39-.67v-8.8a.69.69,0,0,0-.39-.67H63.2C66.29,187.71,67,189.22,67,190.21Zm-3.86-1.78c-.45,0-.87,0-.87,0v3.89s.42,0,.67,0A1.94,1.94,0,0,0,65,190.31,1.81,1.81,0,0,0,63.13,188.43Z"/>
          <path class="cls-1" d="M80.55,192.81c0,3.49-2.93,5.22-5.63,5.19a5.23,5.23,0,1,1,5.63-5.19ZM75,188.33c-2,0-3.44,1.56-3.47,4.2,0,3.17,1.79,4.62,3.5,4.62,2,0,3.4-1.55,3.4-4.25C78.48,190,77,188.33,75,188.33Z"/>
          <path class="cls-1" d="M88,187.55a8.6,8.6,0,0,1,3.51.78l.1,2.36a3.59,3.59,0,0,0-3.36-2.33c-2.53,0-4,1.85-4,4.26,0,2,1,4.56,4.1,4.56a3.6,3.6,0,0,0,1.89-.49V194.1a.73.73,0,0,0-.38-.69h2.66a.74.74,0,0,0-.38.69v2.2a.88.88,0,0,0,.23.61A11.06,11.06,0,0,1,87.78,198c-3,0-5.59-2-5.59-5.19C82.19,190.2,84.14,187.55,88,187.55Z"/>
          <path class="cls-1" d="M101.5,190.21a2.62,2.62,0,0,1-2.52,2.5,2.2,2.2,0,0,1,1.68,1.12s1.79,2.83,2.31,3.42a2.62,2.62,0,0,0,1,.6l-1.94,0a1.77,1.77,0,0,1-1.33-.7c-.67-.94-1.32-2-1.86-2.86-.39-.6-.73-1.24-1.37-1.24l-.66,0v4.07a.71.71,0,0,0,.42.67h-2.7a.71.71,0,0,0,.39-.67v-8.8a.69.69,0,0,0-.39-.67h3.22C100.8,187.71,101.5,189.22,101.5,190.21Zm-3.87-1.78c-.44,0-.86,0-.86,0v3.89s.42,0,.67,0a1.94,1.94,0,0,0,2.09-2.07A1.82,1.82,0,0,0,97.63,188.43Z"/>
          <path class="cls-1" d="M110.28,187.71l0,1.31a1.31,1.31,0,0,0-1.16-.53c-.45,0-2.53,0-2.53,0v3.43h2.25a.73.73,0,0,0,.53-.42v1.58a.68.68,0,0,0-.53-.43h-2.25V197a15.55,15.55,0,0,0,1.94.08c1.29,0,1.89,0,2.44-.94l-.31,1.71h-6.41a.73.73,0,0,0,.44-.67v-8.8a.74.74,0,0,0-.44-.67Z"/>
          <path class="cls-1" d="M115.78,191.65c1.39.65,2.83,1.15,2.83,3.22a3.28,3.28,0,0,1-3.47,3.13,6.33,6.33,0,0,1-2.86-.72l-.08-2.51a3.05,3.05,0,0,0,2.73,2.45,1.75,1.75,0,0,0,1.92-1.79c0-1.42-1.3-1.62-2.65-2.35s-2-1.56-2-2.7c0-2,1.89-2.83,3.25-2.83a4.75,4.75,0,0,1,2.25.55l.08,2.21a2.68,2.68,0,0,0-2.49-2,1.44,1.44,0,0,0-1.58,1.43C113.74,190.67,114.38,191,115.78,191.65Z"/>
          <path class="cls-1" d="M123.86,191.65c1.39.65,2.83,1.15,2.83,3.22a3.28,3.28,0,0,1-3.47,3.13,6.42,6.42,0,0,1-2.87-.72l-.07-2.51a3.05,3.05,0,0,0,2.73,2.45,1.75,1.75,0,0,0,1.92-1.79c0-1.42-1.29-1.62-2.65-2.35s-2-1.56-2-2.7c0-2,1.9-2.83,3.25-2.83a4.75,4.75,0,0,1,2.25.55l.08,2.21a2.68,2.68,0,0,0-2.49-2,1.44,1.44,0,0,0-1.58,1.43C121.82,190.67,122.46,191,123.86,191.65Z"/>
        </g>
        <g>
          <line class="cls-1" x1="2.55" y1="133.34" x2="171.63" y2="133.34"/>
          <rect class="cls-1" x="2.55" y="132.63" width="169.08" height="1.43"/>
        </g>
        <g>
          <line class="cls-1" x1="77.35" y1="54.85" x2="171.63" y2="54.85"/>
          <rect class="cls-1" x="77.35" y="54.14" width="94.27" height="1.43"/>
        </g>
        <g>
          <line class="cls-1" x1="2.55" y1="54.85" x2="64.51" y2="54.85"/>
          <rect class="cls-1" x="2.55" y="54.14" width="61.97" height="1.43"/>
        </g>
        <path class="cls-1" d="M75.32,32.15,63.59,63,90.44,37.27l17.42,7.43L97.58,29l7-9.59L90.93,22l-.37-.43s-7.52-8.95-9.27-11c-.85,2.4-3.85,10.94-3.85,10.94L60.84,24Zm-6,1.59L53,80.2,91.12,43.12l27.75,11.81s-13.8-24.68-14.34-25.66l11.14-17L93.33,16.7,79.86,0s-5.63,16.41-6,17.41c-1.08.2-27.55,4.74-27.55,4.74S67.88,33,69.3,33.74ZM72.92,33,55,23l21-3.26c.34-1,4.58-13,4.58-13l11.1,13.18c1-.18,17.42-3.25,17.42-3.25s-8.44,11.47-9.17,12.45L113,49,90.86,39.56,58.73,70.29Z"/>
      </g>
    </g>
  </g>
</svg>